<svg width="107" height="25" viewBox="0 0 107 25" fill="none" xmlns="http://www.w3.org/2000/svg">
<rect width="107" height="25" rx="12.5" fill="#FF5406"/>
<path d="M22.5264 16.1396V17.5H17.2422V16.1396H22.5264ZM17.7275 7.54688V17.5H16.0117V7.54688H17.7275ZM21.8359 11.7031V13.043H17.2422V11.7031H21.8359ZM22.4922 7.54688V8.91406H17.2422V7.54688H22.4922ZM25.9575 11.6826V17.5H24.31V10.1035H25.8618L25.9575 11.6826ZM25.6635 13.5283L25.1303 13.5215C25.1349 12.9974 25.2078 12.5166 25.3491 12.0791C25.4949 11.6416 25.6954 11.2656 25.9506 10.9512C26.2104 10.6367 26.5203 10.3952 26.8803 10.2266C27.2403 10.0534 27.6414 9.9668 28.0834 9.9668C28.4389 9.9668 28.7602 10.0169 29.0473 10.1172C29.339 10.2129 29.5873 10.3701 29.7924 10.5889C30.0021 10.8076 30.1616 11.0924 30.2709 11.4434C30.3803 11.7897 30.435 12.2158 30.435 12.7217V17.5H28.7807V12.7148C28.7807 12.3594 28.7283 12.0791 28.6235 11.874C28.5232 11.6644 28.3751 11.5163 28.1791 11.4297C27.9877 11.3385 27.7485 11.293 27.4614 11.293C27.1788 11.293 26.9259 11.3522 26.7026 11.4707C26.4793 11.5892 26.2901 11.751 26.1352 11.9561C25.9848 12.1611 25.8686 12.3981 25.7866 12.667C25.7045 12.9359 25.6635 13.223 25.6635 13.5283ZM37.1884 15.9688V7H38.8427V17.5H37.3456L37.1884 15.9688ZM32.3759 13.8838V13.7402C32.3759 13.1797 32.4419 12.6693 32.5741 12.209C32.7063 11.7441 32.8977 11.3454 33.1483 11.0127C33.399 10.6755 33.7043 10.418 34.0643 10.2402C34.4244 10.0579 34.83 9.9668 35.2811 9.9668C35.7277 9.9668 36.1197 10.0534 36.4569 10.2266C36.7942 10.3997 37.0813 10.6481 37.3182 10.9717C37.5552 11.2907 37.7443 11.6735 37.8856 12.1201C38.0269 12.5622 38.1272 13.0544 38.1864 13.5967V14.0547C38.1272 14.5833 38.0269 15.0664 37.8856 15.5039C37.7443 15.9414 37.5552 16.3197 37.3182 16.6387C37.0813 16.9577 36.7919 17.2038 36.4501 17.377C36.1128 17.5501 35.7186 17.6367 35.2675 17.6367C34.8208 17.6367 34.4175 17.5433 34.0575 17.3564C33.702 17.1696 33.399 16.9076 33.1483 16.5703C32.8977 16.2331 32.7063 15.8366 32.5741 15.3809C32.4419 14.9206 32.3759 14.4215 32.3759 13.8838ZM34.0233 13.7402V13.8838C34.0233 14.221 34.0529 14.5355 34.1122 14.8271C34.176 15.1188 34.274 15.3763 34.4061 15.5996C34.5383 15.8184 34.7092 15.9915 34.9188 16.1191C35.133 16.2422 35.3882 16.3037 35.6845 16.3037C36.0582 16.3037 36.3658 16.2217 36.6073 16.0576C36.8488 15.8936 37.038 15.6725 37.1747 15.3945C37.316 15.112 37.4117 14.7975 37.4618 14.4512V13.2139C37.4345 12.945 37.3775 12.6943 37.2909 12.4619C37.2089 12.2295 37.0972 12.0267 36.9559 11.8535C36.8147 11.6758 36.6392 11.5391 36.4296 11.4434C36.2245 11.3431 35.9807 11.293 35.6981 11.293C35.3973 11.293 35.1421 11.3568 34.9325 11.4844C34.7229 11.612 34.5497 11.7874 34.413 12.0107C34.2808 12.234 34.1828 12.4938 34.119 12.79C34.0552 13.0863 34.0233 13.403 34.0233 13.7402ZM44.8572 13.8838V13.7266C44.8572 13.1934 44.9347 12.6989 45.0896 12.2432C45.2446 11.7829 45.4679 11.3841 45.7595 11.0469C46.0558 10.7051 46.4158 10.4408 46.8396 10.2539C47.268 10.0625 47.7511 9.9668 48.2888 9.9668C48.8311 9.9668 49.3142 10.0625 49.738 10.2539C50.1664 10.4408 50.5287 10.7051 50.825 11.0469C51.1212 11.3841 51.3468 11.7829 51.5017 12.2432C51.6567 12.6989 51.7341 13.1934 51.7341 13.7266V13.8838C51.7341 14.417 51.6567 14.9115 51.5017 15.3672C51.3468 15.8229 51.1212 16.2217 50.825 16.5635C50.5287 16.9007 50.1687 17.165 49.7449 17.3564C49.3211 17.5433 48.8403 17.6367 48.3025 17.6367C47.7602 17.6367 47.2748 17.5433 46.8464 17.3564C46.4226 17.165 46.0626 16.9007 45.7664 16.5635C45.4701 16.2217 45.2446 15.8229 45.0896 15.3672C44.9347 14.9115 44.8572 14.417 44.8572 13.8838ZM46.5046 13.7266V13.8838C46.5046 14.2165 46.5388 14.5309 46.6072 14.8271C46.6755 15.1234 46.7826 15.3831 46.9285 15.6064C47.0743 15.8298 47.2612 16.0052 47.489 16.1328C47.7169 16.2604 47.988 16.3242 48.3025 16.3242C48.6078 16.3242 48.8722 16.2604 49.0955 16.1328C49.3233 16.0052 49.5102 15.8298 49.656 15.6064C49.8018 15.3831 49.9089 15.1234 49.9773 14.8271C50.0502 14.5309 50.0867 14.2165 50.0867 13.8838V13.7266C50.0867 13.3984 50.0502 13.0885 49.9773 12.7969C49.9089 12.5007 49.7996 12.2386 49.6492 12.0107C49.5033 11.7829 49.3165 11.6051 49.0886 11.4775C48.8653 11.3454 48.5987 11.2793 48.2888 11.2793C47.9789 11.2793 47.7101 11.3454 47.4822 11.4775C47.2589 11.6051 47.0743 11.7829 46.9285 12.0107C46.7826 12.2386 46.6755 12.5007 46.6072 12.7969C46.5388 13.0885 46.5046 13.3984 46.5046 13.7266ZM55.9035 17.5H54.2561V9.39258C54.2561 8.84115 54.3586 8.37858 54.5637 8.00488C54.7733 7.62663 55.0718 7.3418 55.4592 7.15039C55.8465 6.95443 56.3046 6.85645 56.8332 6.85645C56.9973 6.85645 57.159 6.86784 57.3186 6.89062C57.4781 6.90885 57.633 6.93848 57.7834 6.97949L57.7424 8.25098C57.6512 8.22819 57.551 8.21224 57.4416 8.20312C57.3368 8.19401 57.2229 8.18945 57.0998 8.18945C56.8492 8.18945 56.6327 8.2373 56.4504 8.33301C56.2727 8.42415 56.1359 8.55859 56.0402 8.73633C55.9491 8.91406 55.9035 9.13281 55.9035 9.39258V17.5ZM57.4279 10.1035V11.3066H53.1213V10.1035H57.4279ZM68.6309 14.9365C68.6309 14.7314 68.599 14.5492 68.5352 14.3896C68.476 14.2301 68.3689 14.0843 68.2139 13.9521C68.059 13.82 67.8402 13.6924 67.5577 13.5693C67.2797 13.4417 66.9242 13.3118 66.4913 13.1797C66.0173 13.0339 65.5798 12.8721 65.1788 12.6943C64.7823 12.512 64.4359 12.3024 64.1397 12.0654C63.8435 11.8239 63.6134 11.5482 63.4493 11.2383C63.2852 10.9238 63.2032 10.5615 63.2032 10.1514C63.2032 9.74577 63.2875 9.37663 63.4561 9.04395C63.6293 8.71126 63.8731 8.42415 64.1876 8.18262C64.5066 7.93652 64.8826 7.7474 65.3155 7.61523C65.7484 7.47852 66.227 7.41016 66.7511 7.41016C67.4893 7.41016 68.1251 7.54688 68.6583 7.82031C69.196 8.09375 69.6085 8.46061 69.8956 8.9209C70.1873 9.38118 70.3331 9.88932 70.3331 10.4453H68.6309C68.6309 10.1172 68.5603 9.8278 68.419 9.57715C68.2823 9.32194 68.0727 9.12142 67.7901 8.97559C67.5121 8.82975 67.1589 8.75684 66.7305 8.75684C66.3249 8.75684 65.9877 8.81836 65.7188 8.94141C65.4499 9.06445 65.2494 9.23079 65.1173 9.44043C64.9851 9.65007 64.919 9.88704 64.919 10.1514C64.919 10.3382 64.9623 10.5091 65.0489 10.6641C65.1355 10.8145 65.2677 10.9557 65.4454 11.0879C65.6231 11.2155 65.8464 11.3363 66.1153 11.4502C66.3842 11.5641 66.7009 11.6735 67.0655 11.7783C67.6169 11.9424 68.0977 12.1247 68.5079 12.3252C68.918 12.5212 69.2598 12.7445 69.5333 12.9951C69.8067 13.2458 70.0118 13.5306 70.1485 13.8496C70.2852 14.1641 70.3536 14.5218 70.3536 14.9229C70.3536 15.3421 70.2693 15.7204 70.1007 16.0576C69.932 16.3903 69.6905 16.6751 69.3761 16.9121C69.0662 17.1445 68.6925 17.3245 68.255 17.4521C67.822 17.5752 67.3389 17.6367 66.8057 17.6367C66.3272 17.6367 65.8555 17.5729 65.3907 17.4453C64.9304 17.3177 64.5111 17.124 64.1329 16.8643C63.7546 16.5999 63.4539 16.2718 63.2305 15.8799C63.0072 15.4834 62.8956 15.0208 62.8956 14.4922H64.6114C64.6114 14.8158 64.6661 15.0915 64.7755 15.3193C64.8894 15.5472 65.0466 15.734 65.2471 15.8799C65.4477 16.0212 65.6801 16.126 65.9444 16.1943C66.2133 16.2627 66.5004 16.2969 66.8057 16.2969C67.2068 16.2969 67.5417 16.2399 67.8106 16.126C68.0841 16.012 68.2891 15.8525 68.4259 15.6475C68.5626 15.4424 68.6309 15.2054 68.6309 14.9365ZM76.437 16.0166V12.4893C76.437 12.2249 76.3892 11.9971 76.2935 11.8057C76.1978 11.6143 76.0519 11.4661 75.856 11.3613C75.6646 11.2565 75.423 11.2041 75.1314 11.2041C74.8625 11.2041 74.6301 11.2497 74.4341 11.3408C74.2381 11.432 74.0855 11.555 73.9761 11.71C73.8667 11.8649 73.812 12.0404 73.812 12.2363H72.1714C72.1714 11.9447 72.242 11.6621 72.3833 11.3887C72.5246 11.1152 72.7297 10.8714 72.9986 10.6572C73.2674 10.443 73.5887 10.2744 73.9624 10.1514C74.3361 10.0283 74.7554 9.9668 75.2202 9.9668C75.7762 9.9668 76.2684 10.0602 76.6968 10.2471C77.1297 10.4339 77.4693 10.7165 77.7154 11.0947C77.966 11.4684 78.0913 11.9378 78.0913 12.5029V15.791C78.0913 16.1283 78.1141 16.4313 78.1597 16.7002C78.2098 16.9645 78.2805 17.1947 78.3716 17.3906V17.5H76.6831C76.6057 17.3223 76.5441 17.0967 76.4986 16.8232C76.4575 16.5452 76.437 16.2764 76.437 16.0166ZM76.6763 13.002L76.69 14.0205H75.5073C75.202 14.0205 74.9331 14.0501 74.7007 14.1094C74.4683 14.1641 74.2746 14.2461 74.1196 14.3555C73.9647 14.4648 73.8485 14.597 73.771 14.752C73.6935 14.9069 73.6548 15.0824 73.6548 15.2783C73.6548 15.4743 73.7004 15.6543 73.7915 15.8184C73.8827 15.9779 74.0148 16.1032 74.188 16.1943C74.3657 16.2855 74.5799 16.3311 74.8306 16.3311C75.1678 16.3311 75.4618 16.2627 75.7124 16.126C75.9676 15.9847 76.1682 15.8138 76.314 15.6133C76.4598 15.4082 76.5373 15.2145 76.5464 15.0322L77.0796 15.7637C77.0249 15.9505 76.9315 16.151 76.7993 16.3652C76.6672 16.5794 76.494 16.7845 76.2798 16.9805C76.0702 17.1719 75.8172 17.3291 75.521 17.4521C75.2293 17.5752 74.8921 17.6367 74.5093 17.6367C74.0262 17.6367 73.5956 17.541 73.2173 17.3496C72.839 17.1536 72.5428 16.8916 72.3286 16.5635C72.1144 16.2308 72.0073 15.8548 72.0073 15.4355C72.0073 15.0436 72.0803 14.6973 72.2261 14.3965C72.3765 14.0911 72.5952 13.8359 72.8823 13.6309C73.174 13.4258 73.5295 13.2708 73.9487 13.166C74.368 13.0566 74.8465 13.002 75.3843 13.002H76.6763ZM82.1377 7V17.5H80.4834V7H82.1377ZM87.7631 17.6367C87.2162 17.6367 86.7217 17.5479 86.2797 17.3701C85.8422 17.1878 85.4685 16.9349 85.1586 16.6113C84.8533 16.2878 84.6186 15.9072 84.4545 15.4697C84.2904 15.0322 84.2084 14.5605 84.2084 14.0547V13.7812C84.2084 13.2025 84.2927 12.6784 84.4613 12.209C84.6299 11.7396 84.8646 11.3385 85.1654 11.0059C85.4662 10.6686 85.8217 10.4111 86.2318 10.2334C86.642 10.0557 87.0863 9.9668 87.5648 9.9668C88.0935 9.9668 88.5561 10.0557 88.9525 10.2334C89.349 10.4111 89.6771 10.6618 89.9369 10.9854C90.2012 11.3044 90.3972 11.6849 90.5248 12.127C90.657 12.569 90.723 13.0566 90.723 13.5898V14.2939H85.0082V13.1113H89.0961V12.9814C89.087 12.6852 89.0277 12.4072 88.9184 12.1475C88.8135 11.8877 88.6518 11.6781 88.433 11.5186C88.2143 11.359 87.9226 11.2793 87.558 11.2793C87.2846 11.2793 87.0408 11.3385 86.8266 11.457C86.6169 11.571 86.4415 11.7373 86.3002 11.9561C86.1589 12.1748 86.0495 12.4391 85.9721 12.749C85.8992 13.0544 85.8627 13.3984 85.8627 13.7812V14.0547C85.8627 14.3783 85.906 14.679 85.9926 14.957C86.0837 15.2305 86.2159 15.4697 86.3891 15.6748C86.5622 15.8799 86.7719 16.0417 87.018 16.1602C87.2641 16.2741 87.5443 16.3311 87.8588 16.3311C88.2553 16.3311 88.6085 16.2513 88.9184 16.0918C89.2283 15.9323 89.4971 15.7067 89.725 15.415L90.5932 16.2559C90.4337 16.4883 90.2263 16.7116 89.9711 16.9258C89.7159 17.1354 89.4037 17.3063 89.0346 17.4385C88.67 17.5706 88.2462 17.6367 87.7631 17.6367Z" fill="white"/>
</svg>
